<svg id="Capa_1" enable-background="new 0 0 512 512" height="512" viewBox="0 0 512 512" width="512" xmlns="http://www.w3.org/2000/svg" xmlns:xlink="http://www.w3.org/1999/xlink"><linearGradient id="SVGID_1_" gradientTransform="matrix(.707 -.707 .707 .707 -1138.292 244.921)" gradientUnits="userSpaceOnUse" x1="797.06" x2="1159.098" y1="1174.767" y2="812.728"><stop offset="0" stop-color="#a93aff"/><stop offset="1" stop-color="#ff81ff"/></linearGradient><linearGradient id="SVGID_2_" gradientTransform="matrix(.707 -.707 .707 .707 -1138.292 244.921)" gradientUnits="userSpaceOnUse" x1="875.276" x2="1080.882" y1="1062.136" y2="856.529"><stop offset="0" stop-color="#ffbef9"/><stop offset="1" stop-color="#fff1ff"/></linearGradient><g><g><g><path d="m463.754 231.788-86.703-88.083c-11.716-11.715-30.711-11.715-42.427 0l-42.426 42.427c-11.716 11.715-11.716 30.71 0 42.426l86.703 88.082c17.546 17.547 17.546 46.093 0 63.64s-46.093 17.547-63.64 0l-86.703-88.082c-11.716-11.716-30.711-11.716-42.427 0l-42.426 42.426c-11.716 11.716-11.812 30.614 8.105 50.532l73.425 74.805c60.893 60.893 159.738 70.957 226.267 16.278 76.343-62.743 80.439-176.264 12.252-244.451zm-394.294-162.328c52.639-52.639 138.28-52.639 190.919 0 5.863 5.863 15.351 5.863 21.213 0s5.863-15.351 0-21.213c-64.334-64.333-169.022-64.323-233.345 0s-64.334 169.012 0 233.346c5.863 5.862 15.351 5.862 21.213 0 5.863-5.863 5.863-15.351 0-21.213-52.64-52.641-52.64-138.281 0-190.92zm42.426 42.426c29.251-29.251 76.825-29.24 106.066 0 5.863 5.863 15.351 5.863 21.213 0 5.863-5.862 5.863-15.351 0-21.213-40.935-40.935-107.558-40.935-148.492 0-40.935 40.935-40.935 107.558 0 148.492 5.863 5.863 15.351 5.863 21.213 0 5.863-5.862 5.863-15.351 0-21.213-29.241-29.24-29.251-76.815 0-106.066zm42.426 84.853c5.863-5.863 5.863-15.351 0-21.213-5.852-5.852-5.842-15.371 0-21.213s15.361-5.853 21.213 0c5.863 5.862 15.351 5.862 21.213 0 5.863-5.863 5.863-15.351 0-21.213-17.546-17.546-46.093-17.546-63.64 0s-17.546 46.093 0 63.64c5.864 5.862 15.352 5.862 21.214-.001z" fill="url(#SVGID_1_)"/></g></g><g><g><path d="m154.312 239.165-63.64 63.64c-5.858 5.858-5.858 15.355 0 21.213l53.033 53.033 84.853-84.853-53.033-53.033c-5.857-5.858-15.355-5.858-21.213 0zm169.706-148.492c-5.858-5.858-15.355-5.858-21.213 0l-63.64 63.64c-5.858 5.857-5.858 15.355 0 21.213l53.033 53.033 84.853-84.853z" fill="url(#SVGID_2_)"/></g></g></g></svg>